/* XPM */
static char *a495ea560be14b45fb91f3f0e0c029d5lvqKVaUA2Tj4yXBJ[] = {
/* columns rows colors chars-per-pixel */
"32 32 5 1 ",
"  c None",
". c #25131A",
"X c #C09344",
"o c #FFD569",
"O c #FFF1CC",
/* pixels */
"                                ",
"                                ",
"                                ",
"                                ",
"                                ",
"                                ",
"              ....              ",
"              ....              ",
"            ..XXXX..            ",
"            ..XXXX..            ",
"          ..XXOOooXX..          ",
"          ..XXOOooXX..          ",
"        ..XXOOOOooOOXX..        ",
"        ..XXOOOOooOOXX..        ",
"        ..XXOOXXXXooXX..        ",
"        ..XXOOXXXXooXX..        ",
"        ..XXooXXXXooXX..        ",
"        ..XXooXXXXooXX..        ",
"        ..XXOOooooooXX..        ",
"        ..XXOOooooooXX..        ",
"          ..XXooooXX..          ",
"          ..XXooooXX..          ",
"            ..XXXX..            ",
"            ..XXXX..            ",
"              ....              ",
"              ....              ",
"                                ",
"                                ",
"                                ",
"                                ",
"                                ",
"                                "
};
