/* XPM */
static char *_3323f51802f4820e31afed595a50e9aOZ4rjRn7HQe06618[] = {
/* columns rows colors chars-per-pixel */
"32 32 4 1 ",
"  c None",
". c #25131A",
"X c #C09344",
"o c #FFD569",
/* pixels */
"                                ",
"                                ",
"                                ",
"                                ",
"                                ",
"                                ",
"              ....              ",
"              ....              ",
"            ..XXXX..            ",
"            ..XXXX..            ",
"            ..XXoo..            ",
"            ..XXoo..            ",
"            ..XXoo..            ",
"            ..XXoo..            ",
"            ..XXXX..            ",
"            ..XXXX..            ",
"            ..XXXX..            ",
"            ..XXXX..            ",
"            ..XXoo..            ",
"            ..XXoo..            ",
"            ..XXoo..            ",
"            ..XXoo..            ",
"            ..XXXX..            ",
"            ..XXXX..            ",
"              ....              ",
"              ....              ",
"                                ",
"                                ",
"                                ",
"                                ",
"                                ",
"                                "
};
