/* XPM */
static char *result[] = {
/* columns rows colors chars-per-pixel */
"32 32 3 1 ",
"  c #3D253B",
". c #25131A",
"X c #362030",
/* pixels */
"                                ",
"                                ",
"                                ",
"                                ",
"                                ",
"                                ",
"      ......        ......      ",
"      ......        ......      ",
"      ......        ......      ",
"      ......        ......      ",
"      ......        ......      ",
"      ......        ......      ",
"                                ",
"                                ",
"                  XX            ",
"                  XX            ",
"                  XX            ",
"                  XX            ",
"                  XX            ",
"                  XX            ",
"      ......      XX......      ",
"      ......      XX......      ",
"      ......      XX......      ",
"      ......      XX......      ",
"      ......        ......      ",
"      ......        ......      ",
"  XXXXXXXXXX                    ",
"  XXXXXXXXXX                    ",
"                  XX            ",
"                  XX            ",
"                  XX            ",
"                  XX            "
};
