/* XPM */
static char *result[] = {
/* columns rows colors chars-per-pixel */
"32 32 6 1 ",
"  c #3D253B",
". c #E9EBEC",
"X c #25131A",
"o c #ADC1CF",
"O c #90919E",
"+ c #362030",
/* pixels */
"        ..XX          ..XX      ",
"        ..XX          ..XX      ",
"        ooXX          ooXX      ",
"        ooXX          ooXX      ",
"      ..ooOOXX      ..ooOOXX    ",
"      ..ooOOXX      ..ooOOXX    ",
"      ooooOOXX      ooooOOXX    ",
"      ooooOOXX      ooooOOXX    ",
"      ooOOOOXX      ooOOOOXX    ",
"      ooOOOOXX      ooOOOOXX    ",
"      OOOOOOXX      OOOOOOXX    ",
"      OOOOOOXX      OOOOOOXX    ",
"      XXXXXXXX      XXXXXXXX    ",
"      XXXXXXXX      XXXXXXXX    ",
"        ..XX      ++  ooXX      ",
"        ..XX      ++  ooXX      ",
"        ooXX      ++  ooXX      ",
"        ooXX      ++  ooXX      ",
"      ..ooOOXX    ++ooooOOXX    ",
"      ..ooOOXX    ++ooooOOXX    ",
"      ooooOOXX    ++ooooOOXX    ",
"      ooooOOXX    ++ooooOOXX    ",
"      ooOOOOXX    ++ooOOOOXX    ",
"      ooOOOOXX    ++ooOOOOXX    ",
"      OOOOOOXX      OOOOOOXX    ",
"      OOOOOOXX      OOOOOOXX    ",
"  ++++XXXXXXXX      XXXXXXXX    ",
"  ++++XXXXXXXX      XXXXXXXX    ",
"                  ++            ",
"                  ++            ",
"                  ++            ",
"                  ++            "
};
