/* XPM */
static char *result[] = {
/* columns rows colors chars-per-pixel */
"32 32 5 1 ",
"  c #3D253B",
". c #ADC1CF",
"X c #25131A",
"o c #90919E",
"O c #362030",
/* pixels */
"                                ",
"                                ",
"                                ",
"                                ",
"        ..XX          ..XX      ",
"        ..XX          ..XX      ",
"      ....ooXX      ....ooXX    ",
"      ....ooXX      ....ooXX    ",
"      ..ooooXX      ..ooooXX    ",
"      ..ooooXX      ..ooooXX    ",
"      ooooooXX      ooooooXX    ",
"      ooooooXX      ooooooXX    ",
"      XXXXXXXX      XXXXXXXX    ",
"      XXXXXXXX      XXXXXXXX    ",
"                  OO            ",
"                  OO            ",
"                  OO            ",
"                  OO            ",
"        ..XX      OO  ..XX      ",
"        ..XX      OO  ..XX      ",
"      ....ooXX    OO....ooXX    ",
"      ....ooXX    OO....ooXX    ",
"      ..ooooXX    OO..ooooXX    ",
"      ..ooooXX    OO..ooooXX    ",
"      ooooooXX      ooooooXX    ",
"      ooooooXX      ooooooXX    ",
"  OOOOXXXXXXXX      XXXXXXXX    ",
"  OOOOXXXXXXXX      XXXXXXXX    ",
"                  OO            ",
"                  OO            ",
"                  OO            ",
"                  OO            "
};
