/* XPM */
static char *result[] = {
/* columns rows colors chars-per-pixel */
"32 32 4 1 ",
"  c #3D253B",
". c #25131A",
"X c #ADC1CF",
"o c #362030",
/* pixels */
"                                ",
"                                ",
"                                ",
"                                ",
"                                ",
"                                ",
"      ......        ......      ",
"      ......        ......      ",
"      ..XX..        ..XX..      ",
"      ..XX..        ..XX..      ",
"      XXXXXX        XXXXXX      ",
"      XXXXXX        XXXXXX      ",
"      ......        ......      ",
"      ......        ......      ",
"                  oo            ",
"                  oo            ",
"                  oo            ",
"                  oo            ",
"                  oo            ",
"                  oo            ",
"      ......      oo......      ",
"      ......      oo......      ",
"      ..XX..      oo..XX..      ",
"      ..XX..      oo..XX..      ",
"      XXXXXX        XXXXXX      ",
"      XXXXXX        XXXXXX      ",
"  oooo......        ......      ",
"  oooo......        ......      ",
"                  oo            ",
"                  oo            ",
"                  oo            ",
"                  oo            "
};
