/* XPM */
static char *_b2dc389688c4503b9e8da31c25286dfGki0bOS0WaWYQoSp[] = {
/* columns rows colors chars-per-pixel */
"32 32 4 1 ",
"  c #25131A",
". c #4C2F49",
"X c #6E4A48",
"o c #78514F",
/* pixels */
"                  ..............",
"                  ..............",
"                  ..XXXXXXXXoo..",
"                  ..XXXXXXXXoo..",
"                  ..XXXXXXXXoo..",
"                  ..XXXXXXXXoo..",
"                  ..XXXXXXXXoo..",
"                  ..XXXXXXXXoo..",
"                  ..XXXXXXXXoo..",
"                  ..XXXXXXXXoo..",
"                  ..XXXXXXXXoo..",
"                  ..XXXXXXXXoo..",
"                  ..XXXXXXXXoo..",
"                  ..XXXXXXXXoo..",
"                  ..XXXXXXXXoo..",
"                  ..XXXXXXXXoo..",
"                  ..XXXXXXXXoo..",
"                  ..XXXXXXXXoo..",
"                  ..XXXXXXXXoo..",
"                  ..XXXXXXXXoo..",
"                  ..XXXXXXXXoo..",
"                  ..XXXXXXXXoo..",
"                  ..XXXXXXXXoo..",
"                  ..XXXXXXXXoo..",
"                  ..XXXXXXXXoo..",
"                  ..XXXXXXXXoo..",
"                  ..XXXXXXXXoo..",
"                  ..XXXXXXXXoo..",
"                  ..ooXXoooooo..",
"                  ..ooXXoooooo..",
"                  ..............",
"                  .............."
};
