/* XPM */
static char *_6dc8030430846729b0908acde0e14f4QOO8LrrSbCnKqI9M[] = {
/* columns rows colors chars-per-pixel */
"32 32 5 1 ",
"  c #4C2F49",
". c #78514F",
"X c #6E4A48",
"o c #3D253B",
"O c #25131A",
/* pixels */
"                                ",
"                                ",
"    ........        ........    ",
"    ........        ........    ",
"  XXXXXXXX....    ..XXXXXX....  ",
"  XXXXXXXX....    ..XXXXXX....  ",
"  XXXXXXXXXX..    ..XXXXXXXX..  ",
"  XXXXXXXXXX..    ..XXXXXXXX..  ",
"  XXXXXXXXXXXX    XXXXXXXXXXXX  ",
"  XXXXXXXXXXXX    XXXXXXXXXXXX  ",
"  XXXXXXXXXXXX    XXXXXXXXXX..  ",
"  XXXXXXXXXXXX    XXXXXXXXXX..  ",
"                                ",
"                                ",
"oooooooooooooooooooooooooooooooo",
"oooooooooooooooooooooooooooooooo",
"OOOOOOOOOOOOooooooooOOOOOOOOOOOO",
"OOOOOOOOOOOOooooooooOOOOOOOOOOOO",
"OOOOOOOOOOOOOOooooOOOOOOOOOOooOO",
"OOOOOOOOOOOOOOooooOOOOOOOOOOooOO",
"OOOOOOOOOOOOOOOOooOOOOOOOOOOooOO",
"OOOOOOOOOOOOOOOOooOOOOOOOOOOooOO",
"ooooooooooooOOooOOooooooooooOOOO",
"ooooooooooooOOooOOooooooooooOOOO",
"OOOOOOOOOOOOOOOOooOOOOOOOOOOOOOO",
"OOOOOOOOOOOOOOOOooOOOOOOOOOOOOOO",
"OOOOOOOOOOOOOOOOOOOOOOOOOOOOOOOO",
"OOOOOOOOOOOOOOOOOOOOOOOOOOOOOOOO",
"OOOOOOOOOOOOOOOOOOOOOOOOOOOOOOOO",
"OOOOOOOOOOOOOOOOOOOOOOOOOOOOOOOO",
"OOOOOOOOOOOOOOOOOOOOOOOOOOOOOOOO",
"OOOOOOOOOOOOOOOOOOOOOOOOOOOOOOOO"
};
