/* XPM */
static char *ec3cad0f675f43588bd01ab5d72c00e98W3uQ1FWhOx6J6cx[] = {
/* columns rows colors chars-per-pixel */
"32 32 4 1 ",
"  c #25131A",
". c #4C2F49",
"X c #78514F",
"o c #6E4A48",
/* pixels */
"                    ............",
"                    ............",
"                  ..XXooXXXXXX..",
"                  ..XXooXXXXXX..",
"                  ..ooooooooXX..",
"                  ..ooooooooXX..",
"                  ..ooooooooXX..",
"                  ..ooooooooXX..",
"                  ..ooooooooXX..",
"                  ..ooooooooXX..",
"                  ..ooooooooXX..",
"                  ..ooooooooXX..",
"                  ..ooooooooXX..",
"                  ..ooooooooXX..",
"                  ..............",
"                  ..............",
"                  ..............",
"                  ..............",
"                  ..XXooXXXXXX..",
"                  ..XXooXXXXXX..",
"                  ..ooooooooXX..",
"                  ..ooooooooXX..",
"                  ..ooooooooXX..",
"                  ..ooooooooXX..",
"                  ..ooooooooXX..",
"                  ..ooooooooXX..",
"                  ..ooooooooXX..",
"                  ..ooooooooXX..",
"                  ..XXooXXXXXX..",
"                  ..XXooXXXXXX..",
"                  ..............",
"                  .............."
};
