/* XPM */
static char *faab59903a1e4374966220f41a83a1b8B4LA9RJVCy8Efsw0[] = {
/* columns rows colors chars-per-pixel */
"32 32 8 1 ",
"  c None",
". c #25131A",
"X c #523B40",
"o c #895A45",
"O c #BF704D",
"+ c #90919E",
"@ c #ADC1CF",
"# c #BBD3E1",
/* pixels */
"                                ",
"                                ",
"                                ",
"                                ",
"      ....................      ",
"      ....................      ",
"    ....++++@@@@@@@@++++....    ",
"    ....++++@@@@@@@@++++....    ",
"  ....@@OO@@oooooooo##OO@@....  ",
"  ....@@OO@@oooooooo##OO@@....  ",
"  ..++ooOOOOOOOOOOOOOOOOoo++..  ",
"  ..++ooOOOOOOOOOOOOOOOOoo++..  ",
"  ..@@@@@@@@@@@@@@@@@@@@@@@@..  ",
"  ..@@@@@@@@@@@@@@@@@@@@@@@@..  ",
"  ........++++++++++++........  ",
"  ........++++++++++++........  ",
"  ..@@ooXXXXXX++++XXXXXXoo@@..  ",
"  ..@@ooXXXXXX++++XXXXXXoo@@..  ",
"  ..++++ooXX++++++++XXoo++++..  ",
"  ..++++ooXX++++++++XXoo++++..  ",
"  ..++++ooXXXXXXXXXXXXoo++++..  ",
"  ..++++ooXXXXXXXXXXXXoo++++..  ",
"  ..@@++XXXXXXooooXXXXXX++@@..  ",
"  ..@@++XXXXXXooooXXXXXX++@@..  ",
"  ..@@@@++++++++++++++++@@@@..  ",
"  ..@@@@++++++++++++++++@@@@..  ",
"  ............................  ",
"  ............................  ",
"                                ",
"                                ",
"                                ",
"                                "
};
