/* XPM */
static char *result[] = {
/* columns rows colors chars-per-pixel */
"32 32 5 1 ",
"  c #25131A",
". c #C09344",
"X c #FFD569",
"o c #FFF1CC",
"O c None",
/* pixels */
"OOOOOOOOOOOOOOOOOOOOOOOOOOOOOOOO",
"OOOOOOOOOOOOOOOOOOOOOOOOOOOOOOOO",
"OOOOOOOOOOOOOOOOOOOOOOOOOOOOOOOO",
"OOOOOOOOOOOOOOOOOOOOOOOOOOOOOOOO",
"OOOOOOOOOOOOOOOOOOOOOOOOOOOOOOOO",
"OOOOOOOOOOOOOOOOOOOOOOOOOOOOOOOO",
"OOOOOOOOOOOOOO    OOOOOOOOOOOOOO",
"OOOOOOOOOOOOOO    OOOOOOOOOOOOOO",
"OOOOOOOOOOOO  ....  OOOOOOOOOOOO",
"OOOOOOOOOOOO  ....  OOOOOOOOOOOO",
"OOOOOOOOOO  ..ooXX..  OOOOOOOOOO",
"OOOOOOOOOO  ..ooXX..  OOOOOOOOOO",
"OOOOOOOO  ..ooooXXoo..  OOOOOOOO",
"OOOOOOOO  ..ooooXXoo..  OOOOOOOO",
"OOOOOOOO  ..oo....XX..  OOOOOOOO",
"OOOOOOOO  ..oo....XX..  OOOOOOOO",
"OOOOOOOO  ..XX....XX..  OOOOOOOO",
"OOOOOOOO  ..XX....XX..  OOOOOOOO",
"OOOOOOOO  ..ooXXXXXX..  OOOOOOOO",
"OOOOOOOO  ..ooXXXXXX..  OOOOOOOO",
"OOOOOOOOOO  ..XXXX..  OOOOOOOOOO",
"OOOOOOOOOO  ..XXXX..  OOOOOOOOOO",
"OOOOOOOOOOOO  ....  OOOOOOOOOOOO",
"OOOOOOOOOOOO  ....  OOOOOOOOOOOO",
"OOOOOOOOOOOOOO    OOOOOOOOOOOOOO",
"OOOOOOOOOOOOOO    OOOOOOOOOOOOOO",
"OOOOOOOOOOOOOOOOOOOOOOOOOOOOOOOO",
"OOOOOOOOOOOOOOOOOOOOOOOOOOOOOOOO",
"OOOOOOOOOOOOOOOOOOOOOOOOOOOOOOOO",
"OOOOOOOOOOOOOOOOOOOOOOOOOOOOOOOO",
"OOOOOOOOOOOOOOOOOOOOOOOOOOOOOOOO",
"OOOOOOOOOOOOOOOOOOOOOOOOOOOOOOOO"
};
