/* XPM */
static char *result[] = {
/* columns rows colors chars-per-pixel */
"32 32 5 1 ",
"  c #25131A",
". c #C09344",
"X c #FFD569",
"o c #FFF1CC",
"O c None",
/* pixels */
"OOOOOOOOOOOOOOOOOOOOOOOOOOOOOOOO",
"OOOOOOOOOOOOOOOOOOOOOOOOOOOOOOOO",
"OOOOOOOOOOOOOOOOOOOOOOOOOOOOOOOO",
"OOOOOOOOOOOOOOOOOOOOOOOOOOOOOOOO",
"OOOOOOOOOOOOOOOOOOOOOOOOOOOOOOOO",
"OOOOOOOOOOOOOOOOOOOOOOOOOOOOOOOO",
"OOOOOOOOOOOO        OOOOOOOOOOOO",
"OOOOOOOOOOOO        OOOOOOOOOOOO",
"OOOOOOOOOO  ........  OOOOOOOOOO",
"OOOOOOOOOO  ........  OOOOOOOOOO",
"OOOOOOOO  ..ooooooXX..  OOOOOOOO",
"OOOOOOOO  ..ooooooXX..  OOOOOOOO",
"OOOOOO  ..oooo....XXoo..  OOOOOO",
"OOOOOO  ..oooo....XXoo..  OOOOOO",
"OOOOOO  ..oo..ooXX..XX..  OOOOOO",
"OOOOOO  ..oo..ooXX..XX..  OOOOOO",
"OOOOOO  ..XX..XXXX..XX..  OOOOOO",
"OOOOOO  ..XX..XXXX..XX..  OOOOOO",
"OOOOOO  ..ooXX....XXXX..  OOOOOO",
"OOOOOO  ..ooXX....XXXX..  OOOOOO",
"OOOOOOOO  ..XXXXXXXX..  OOOOOOOO",
"OOOOOOOO  ..XXXXXXXX..  OOOOOOOO",
"OOOOOOOOOO  ........  OOOOOOOOOO",
"OOOOOOOOOO  ........  OOOOOOOOOO",
"OOOOOOOOOOOO        OOOOOOOOOOOO",
"OOOOOOOOOOOO        OOOOOOOOOOOO",
"OOOOOOOOOOOOOOOOOOOOOOOOOOOOOOOO",
"OOOOOOOOOOOOOOOOOOOOOOOOOOOOOOOO",
"OOOOOOOOOOOOOOOOOOOOOOOOOOOOOOOO",
"OOOOOOOOOOOOOOOOOOOOOOOOOOOOOOOO",
"OOOOOOOOOOOOOOOOOOOOOOOOOOOOOOOO",
"OOOOOOOOOOOOOOOOOOOOOOOOOOOOOOOO"
};
