/* XPM */
static char *result[] = {
/* columns rows colors chars-per-pixel */
"32 32 42 1 ",
"  c #000010",
". c #000014",
"X c #00000D",
"o c #3A3A54",
"O c #35354D",
"+ c #202036",
"@ c #1D1D32",
"# c #00000E",
"$ c #1B1B2B",
"% c #00000A",
"& c #141426",
"* c #222237",
"= c black",
"- c #1B1009",
"; c #26170C",
": c #2C2121",
"> c #463529",
", c #413125",
"< c #161625",
"1 c #00000B",
"2 c #160D07",
"3 c #2E1E13",
"4 c #37271B",
"5 c #160D0D",
"6 c #48372A",
"7 c #35261A",
"8 c #19192B",
"9 c #151522",
"0 c #080402",
"q c #716962",
"w c #624F40",
"e c #787673",
"r c #000007",
"t c #2F2822",
"y c #4A4948",
"u c #32261E",
"i c #313147",
"p c #191928",
"a c #000009",
"s c #020101",
"d c #010000",
"f c #635C57",
/* pixels */
"          ..XXXXX          ..   ",
"oOOOO++..ooooooOoOOO@+o##ooooooo",
"+@++@@+..o++++++@@+@@@+.#+++ooo+",
"+++++++..++###########$#%+++oo++",
"++++++$..$#&#########o#%#+++++++",
"++++++$..#*#======-;;;:##+++++++",
"$$$$$$$.#*#=======;>;,;o#+++++<<",
".11111##*#=======23>;,45*###11..",
"X ....#o*#=======23>;,45**#     ",
"%oOOOo#&#========;3>;,4;#&#OOOO.",
"Xo+++@#*#========63>;,47#&#+++O ",
"X8++++#o#========;;;;;;;#o#+++OX",
".9++@@##0========qwewewq;##+++@X",
" 9+@@+##=========,,,,,,,;##$$$+X",
"X9$$$$#o#========;;;;;;;#&#$$$$X",
"1###. #*#========63>;,47#&#.#11r",
".   11#*#========63>;,47#&#11   ",
"oooooo#*#========ty>;,47#*#OOOOO",
"++++88#*#========6u>;,47#&#++iOO",
"+8+++8#*#========6u>;,47#&#++@++",
"++8++8#*#========6u>;,47#*#+@+++",
"+++8+8#o#========6u>;,47#*#+@+++",
"++88++#o#========6u>;,47#o#$p$$$",
"###1  #*#========ty>;,47#*#a#1#.",
"a1#####*#========63>;,47#*#   ##",
"1OOoOO#*#========63>;,47#o#OOoo.",
"1OooO+#*X========;;;;;;;#o#@@@+ ",
"#O++@+##s========qwewewq;##++++ ",
"#+++++##d========,,,,,,f;##88++ ",
"#$++++#oX========;;;;;;;#o#+8++ ",
"#$$$99#*#========63>;,47#o#$$$$ ",
"..    #*#========63>;,47#o# XX. "
};
