/* XPM */
static char *result[] = {
/* columns rows colors chars-per-pixel */
"32 32 11 1 ",
"  c #412320",
". c #59302C",
"X c #5C322D",
"o c #6D3B36",
"O c #434F65",
"+ c #6F7F9F",
"@ c gray55",
"# c #8895AF",
"$ c gray68",
"% c #A6B0C4",
"& c None",
/* pixels */
"&&&&&&&&&&&&&&&&&&&&&&&&&&&&&&&&",
"&&&&&&&&&&&&&&&&&&&&&&&&&&&&&&&&",
"&&&&&&&&&&&&&&&&&&&&&&&&&&&&&&&&",
"&&&&&&&&&&&&&&&&&&&&&&&&&&&&&&&&",
"&&&&&&&&&&&&&######&&&&&&&&&&&&&",
"&&&&&&&&&&&&&######&&&&&&&&&&&&&",
"&&&&&&&#####O######O#####&&&&&&&",
"&&&&&&&#####O%%%%%%O#####&&&&&&&",
"O#####O#####O++++++O#####O#####O",
"O#####O%%%%%O++++++O%%%%%O#####O",
"O#####O+++++O++++++O+++++O#####O",
"O%%%%%O+++++O++++++O+++++O%%%%%O",
"O+++++O+++++&&&&&&&&+++++O+++++O",
"O+++++&&&&&&&&&&&&&&&&&&&&+++++O",
"O+++++&&&&&&&&&&&&&&&&&&&&+++++O",
"OOOOOO&&&&&&&&&&&&&&&&&&&&OOOOOO",
"O%%%%%&&&&&&        &&&&&&%%%%%O",
"O+++++                    +++++O",
"O+++++                    +++++O",
"O+++++      . .... .      +++++O",
"O+++++... ... .... ... ...+++++O",
"OOOOOO... oooXooooXooo ...OOOOOO",
"O%%%%%oooXoooXooooXoooXooo%%%%%O",
"O+++++@@$XoooXooooXoooXooo+++++O",
"O+++++@$$XoooXooooXoooXooo+++++O",
"O+++++oooXoooXooooXoooXooo+++++O",
"O+++++oooXoooXooooXoooXo$o+++++O",
"OOOOOOoooXoooXooooXoooXo$oOOOOOO",
"O%%%%%oooXoooXooooXoooXo$o%%%%%O",
"O+++++oooXoooXooooXoooXo$o+++++O",
"O+++++oooXoooXooooXoooXo$o+++++O",
"O+++++oooXoooXooooXoooXooo+++++O"
};
