/* XPM */
static char *result[] = {
/* columns rows colors chars-per-pixel */
"32 32 15 1 ",
"  c #060608",
". c #412320",
"X c #59302C",
"o c #5C322D",
"O c #6D3B36",
"+ c gray36",
"@ c #434F65",
"# c #9A544C",
"$ c #6F7F9F",
"% c gray55",
"& c #8895AF",
"* c gray68",
"= c #A6B0C4",
"- c white",
"; c None",
/* pixels */
";;;;;;;;;;;;;;;;;;;;;;;;;;;;;;;;",
";;;;;;;;;;;;;;;;;;;;;;;;;;;;;;;;",
";;;;;;;;;;;;;;;;;;;;;;;;;;;;;;;;",
";;;;;;;;;;;;;;;;;;;;;;;;;;;;;;;;",
";;;;;;;;;;;;;&&&&&&;;;;;;;;;;;;;",
";;;;;;;;;;;;;&&&&&&;;;;;;;;;;;;;",
";;;;;;;&&&&&@&&&&&&@&&&&&;;;;;;;",
";;;;;;;&&&&&@======@&&&&&;;;;;;;",
"@&&&&&@&&&&&@$$$$$$@&&&&&@&&&&&@",
"@&&&&&@=====@$$$$$$@=====@&&&&&@",
"@&&&&&@$$$$$@$$$$$$@$$$$$@&&&&&@",
"@=====@$$$$$@$$$$$$@$$$$$@=====@",
"@$$$$$@$$$$$X.XXXX.X$$$$$@$$$$$@",
"@$$$$$XXX.XXX.XXXX.XXX.XXX$$$$$@",
"@$$$$$XXX.OOOoOOOOoOOO.XXX$$$$$@",
"@@@@@@OOOoOOOoOOOOoOOOoOOO@@@@@@",
"@=====%%*oOOOoO  OoOOOoOOO=====@",
"@$$$$$%**oOOO  -- oOOOoOOO$$$$$@",
"@$$$$$OOOoOOO * +- OOOoOOO$$$$$@",
"@$$$$$OOOoOOO+* **- OOoOOO$$$$$@",
"@$$$$$OOOoOOO+******OOoO*O$$$$$@",
"@@@@@@OOOoOO +**  ** OoO*O@@@@@@",
"@=====OOOoOOO *** ***OoO*O=====@",
"@$$$$$OOOoOOO +***** OoO*O$$$$$@",
"@$$$$$OOOoOOOo+***  OOoO*O$$$$$@",
"@$$$$$OOOoOOOo +  oOOOoOOO$$$$$@",
"@$$$$$OOOoOOOoOOOOoOOOoOOO$$$$$@",
"@@@@@@OOOoOOOoOOOOoOOOoOOO@@@@@@",
"@=====%%*oOOOoOOOOoOOOoOOO=====@",
"@$$$$$%**oOOOoOOOOoOOOoOOO$$$$$@",
"@$$$$$OOOoOOOoOOOOoOOOoOOO$$$$$@",
"@$$$$$###o###o####o###o###$$$$$@"
};
