/* XPM */
static char *_15eae4c5c494c408733fcd177be3d05IendG6t6aZZWU8uJ[] = {
/* columns rows colors chars-per-pixel */
"32 32 8 1 ",
"  c None",
". c #25131A",
"X c #724736",
"o c #523B40",
"O c #895A45",
"+ c #BF704D",
"@ c #90919E",
"# c #ADC1CF",
/* pixels */
"                                ",
"                                ",
"                                ",
"                                ",
"                                ",
"                                ",
"    ........................    ",
"    ........................    ",
"    ..@@################@@..    ",
"    ..@@################@@..    ",
"    ..##OO++++++++++++OO##..    ",
"    ..##OO++++++++++++OO##..    ",
"    ..@@################@@..    ",
"    ..@@################@@..    ",
"    ........@@@@@@@@........    ",
"    ........@@@@@@@@........    ",
"    ..##OOooooooooooooOO##..    ",
"    ..##OOooooooooooooOO##..    ",
"    ..@@@@ooOOOOooOOoo@@@@..    ",
"    ..@@@@ooOOOOooOOoo@@@@..    ",
"    ..@@@@ooXXXXooXXoo@@@@..    ",
"    ..@@@@ooXXXXooXXoo@@@@..    ",
"    ..##XXooooooooooooXX##..    ",
"    ..##XXooooooooooooXX##..    ",
"    ..####@@@@@@@@@@@@####..    ",
"    ..####@@@@@@@@@@@@####..    ",
"    ........................    ",
"    ........................    ",
"                                ",
"                                ",
"                                ",
"                                "
};
