/* XPM */
static char *b929141cfe854d80a04b2141eacbaa04pJBYhE4VyCoRUMqh[] = {
/* columns rows colors chars-per-pixel */
"32 32 6 1 ",
"  c None",
". c #25131A",
"X c #724736",
"o c #523B40",
"O c #895A45",
"+ c #BF704D",
/* pixels */
"                                ",
"                                ",
"                                ",
"                                ",
"                                ",
"    ........................    ",
"    ........................    ",
"    ..++OOOOOOOOOOOOOOOO++..    ",
"    ..++OOOOOOOOOOOOOOOO++..    ",
"    ..++OO++OO++++OO++OO++..    ",
"    ..++OO++OO++++OO++OO++..    ",
"    ..OO++++++++++++++++OO..    ",
"    ..OO++++++++++++++++OO..    ",
"    ........................    ",
"    ........................    ",
"    ..OOOOOOOOOOOOOOOOOOOO..    ",
"    ..OOOOOOOOOOOOOOOOOOOO..    ",
"    ..OOooooooooooooooooOO..    ",
"    ..OOooooooooooooooooOO..    ",
"    ..OOooOOooOOOOooOOooOO..    ",
"    ..OOooOOooOOOOooOOooOO..    ",
"    ..XXooooooooooooooooXX..    ",
"    ..XXooooooooooooooooXX..    ",
"    ..XXXXXXXXXXXXXXXXXXXX..    ",
"    ..XXXXXXXXXXXXXXXXXXXX..    ",
"    ........................    ",
"    ........................    ",
"                                ",
"                                ",
"                                ",
"                                ",
"                                "
};
