/* XPM */
static char *result[] = {
/* columns rows colors chars-per-pixel */
"32 32 37 1 ",
"  c #232323",
". c #323234",
"X c #2D401C",
"o c #417517",
"O c #534721",
"+ c #265358",
"@ c #3E7F68",
"# c gray25",
"$ c #444444",
"% c #464646",
"& c #545456",
"* c #5D5D5D",
"= c #4B6757",
"- c #416E5F",
"; c #6D6D6E",
": c #777575",
"> c gray49",
", c #9D704C",
"< c #6A8779",
"1 c #D7906E",
"2 c #352A80",
"3 c #453FB4",
"4 c #516CED",
"5 c #549E8E",
"6 c #75A2FF",
"7 c gray55",
"8 c #809D90",
"9 c #92B0A3",
"0 c gray65",
"q c #B9B6B5",
"w c #EEBE93",
"e c #FFE1AF",
"r c #DBD8D7",
"t c gray85",
"y c gray95",
"u c white",
"i c None",
/* pixels */
"iiiiiiiiiiiiiiiiiiiiiiiiiiiiiiii",
"iiiiiiiiiiiiiiii#iiiiiiiiiiiiiii",
"iiiiiiiiiii#####*#i###iiiiiiiiii",
"iiiiiiiiiiii#>*#>*#>>*#iiiiiiiii",
"iiiiiii#######>*>#>>*#iiiiiiiiii",
"iiiiiiii#*>>**>>>>>*#####iiiiiii",
"iiiiiiii##*>>0>>>>>0>>>**#iiiiii",
"iiiiiii#**>00>>>>>>>00>>>*#iiiii",
"iiiiii#*>>>>00>>>>>00>>*##iiiiii",
"iiiii#*>>*>>>0>000>0>>>>*#iiiiii",
"iiii#***#>>>*>>>>>>>>>*>>*#iiiii",
"iiiii###*>>*#*>>>*>>>>*#>>*#iiii",
"iiiiiii#>>*#w#*>>>*#*>>##***#iii",
"iiiiiii#>*#www#*>>**#*>#*###iiii",
"iiiiiii#*#ww%%%#*>#O*#*#**#iiiii",
"iiiiiiii#Owet te#*#eO*##**#iiiii",
"iiiiiiiiiOwe7 yee#,eO**##*#iiiii",
"iiiiiiiiiO1eXXueee,wO**#i#iiiiii",
"iiiiiiiiiO,eooeeew1O*#*#iiiiiiii",
"iiiiiiiiiiO1eeeew11**##iiiiiiiii",
"iiiiiiiiiiiO,1ww11,*#.iiiiiiiiii",
"iiiiiiiiiiiiOOOOOOO#$$.iiiiiiiii",
"iiiiiiiiiii.$$$&&&$&&&&.iiiiiiii",
"iiiiiiiiiii.$&;;;&&uq$;$.iiiiiii",
"iiiiiiiiiii.$$&&&:uur:;&.iiiiiii",
"iiiiiiiiiiii23466:rur:;&$.iiiiii",
"iiiiiiiiiiii2=344OeewO;&$.iiiiii",
"iiiiiiiiiiiii+898Oee1O&&$.iiiiii",
"iiiiiiiiiiiii+<988OOO.&&$.iiiiii",
"iiiiiiiiiiiiii+@5@-+..&$.iiiiiii",
"iiiiiiiiiiiiii+55@-+ii..iiiiiiii",
"iiiiiiiiiiiiiii++++iiiiiiiiiiiii"
};
