/* XPM */
static char *c87863ec613e4d90c5fecd3526a89820sHT3ub6gE4mmCB8G[] = {
/* columns rows colors chars-per-pixel */
"32 32 124 2 ",
"   c None",
".  c #4E2F1B",
"X  c #502F1B",
"o  c #4F311D",
"O  c #50311D",
"+  c #4E3420",
"@  c #533623",
"#  c #543825",
"$  c #593A25",
"%  c #533D2C",
"&  c #5B3E2A",
"*  c #5E412D",
"=  c #534A3E",
"-  c #60442F",
";  c #614531",
":  c #634936",
">  c #654D39",
",  c #68513E",
"<  c #5E5446",
"1  c #605647",
"2  c #605748",
"3  c #635A4C",
"4  c #665D52",
"5  c #73654E",
"6  c #6B6354",
"7  c #6A6258",
"8  c #6F6858",
"9  c #736650",
"0  c #726A5A",
"q  c #786F5F",
"w  c #77715E",
"e  c #78725F",
"r  c #777060",
"t  c #7A7461",
"y  c #7A7562",
"u  c #797461",
"i  c #7A7364",
"p  c #7C7565",
"a  c #7C7664",
"s  c #7D7666",
"d  c #7C7766",
"f  c #7D7766",
"g  c #7D7767",
"h  c #787360",
"j  c #7D7866",
"k  c #7D7867",
"l  c #7E7867",
"z  c #7F7867",
"x  c #7E7967",
"c  c #7F7868",
"v  c #817C6C",
"b  c #827C6C",
"n  c #827D6C",
"m  c #827D6D",
"M  c #837D6D",
"N  c #837E6D",
"B  c #837E6E",
"V  c #847E6E",
"C  c #847F6E",
"Z  c #857F6E",
"A  c #85806F",
"S  c #86806F",
"D  c #878171",
"F  c #878272",
"G  c #888272",
"H  c #888372",
"J  c #888273",
"K  c #888373",
"L  c #898373",
"P  c #898473",
"I  c #888374",
"U  c #898374",
"Y  c #898474",
"T  c #898475",
"R  c #8A8474",
"E  c #8A8574",
"W  c #8A8475",
"Q  c #8A8575",
"!  c #8B8575",
"~  c #8A8576",
"^  c #8B8676",
"/  c #8B8678",
"(  c #8B8779",
")  c #8C8778",
"_  c #8D8778",
"`  c #8C8679",
"'  c #8C8779",
"]  c #8D8779",
"[  c #8C877A",
"{  c #8C877B",
"}  c #8D8879",
"|  c #8E8879",
" . c #8D887A",
".. c #8E887A",
"X. c #8E897B",
"o. c #8E897C",
"O. c #8F8B7C",
"+. c #8E8A7D",
"@. c #8F8A7D",
"#. c #8F8B7D",
"$. c #8E8A7E",
"%. c #8F8B7E",
"&. c #8F8B7F",
"*. c #908B7C",
"=. c #908A7D",
"-. c #908B7D",
";. c #908B7E",
":. c #908B7F",
">. c #908C7E",
",. c #918C7E",
"<. c #908C7F",
"1. c #918C7F",
"2. c #908C80",
"3. c #918D80",
"4. c #928D80",
"5. c #918F87",
"6. c #929086",
"7. c #939087",
"8. c #939187",
"9. c #95928A",
"0. c #96938B",
"q. c #96948B",
"w. c #97948B",
"e. c #97948C",
/* pixels */
"                                                                ",
"                                                                ",
"                                                                ",
"                              > > > > : :                       ",
"                        > , , F F F F Z < : ;                   ",
"                      > r q q F F F F F Z 2 3 &                 ",
"                    : h h r %.H P H F F I 3 3 ;                 ",
"                  : s s i %./ H H I H H I I 3 3 &               ",
"                ; s s s :._ P P I H I F I I < < < #             ",
"              * s v z ,._ _ P P H F ^ I ^ T ~ < = = &           ",
"              ; 9 9 ,.' } ! ! P ^ H ^ ^ T ^ ^ %.= = %           ",
"              ; 5 9 2.} } } P P _ I I ^ ^ T ^ ( %.= = %         ",
"            - 5 5 ,.' } } } _ _ _ ^ P _ ^ ^ ( { { = = #         ",
"            & 5 2.} } } } } *.} _ } P H +.( } ( { = = = %       ",
"          & 5 :.( } } } } } } *.} *.:.*.$.( ~ ~ { < = = < %     ",
"          * 5 Z ,.( } } } } } :.,.:.:.%.{ { ~ 5.4 < = = = %     ",
"        * 5 n A A w._ ^ _ _ ,.6.,.6.,.*.O.8.8.4 3 3 3 = = *     ",
"        * n n A n A w.w.w.6.+.3.2.2.*.9.8.e w 3 3 3 3 3 = *     ",
"      * n n n n A A A A A w.3.3.w.w.9.t e e 3 3 3 3 1 1 < %     ",
"      * n n A n n n A A A w.q.q.z t t e e w 3 3 3 3 1 < < %     ",
"      & n n n A A A A n q.j z x z t y w w 3 3 3 2 2 < < < #     ",
"      $ 8 6 n n n n n A w.j j x z j w w e 3 3 2 2 2 < < < +     ",
"      $ 6 6 6 9 n A n +.j z j z j j j 7 7 3 2 3 2 < < < +       ",
"        # 6 6 6 6 7 8 z j j j j j j 7 7 7 6 < 2 < < < o         ",
"        $ 6 6 6 6 6 9 8 y j j j v 7 6 6 4 4 4 < < < o           ",
"          @ 4 6 6 6 9 6 8 j j j s 4 7 4 7 3 4 < < o             ",
"          # 6 6 6 6 6 6 8 0 0 0 8 7 7 7 4 4 3 + o               ",
"            O 3 6 4 6 0 8 8 8 8 6 7 7 4 3 @ o                   ",
"              # @ @ O O 8 6 8 9 6 7 4 O O                       ",
"                        O X . X O O O                           ",
"                                                                ",
"                                                                "
};
