/* XPM */
static char *dd5ff1ec3b30483fd7fa9d0631fc33daZKH7BcfF86Ru2Fo1[] = {
/* columns rows colors chars-per-pixel */
"32 32 5 1 ",
"  c #4C2F49",
". c #25131A",
"X c #6E4A48",
"o c #78514F",
"O c #3D253B",
/* pixels */
"              ..................",
"              ..................",
"              ..................",
"              ..................",
"  XXooooooXX  ..................",
"  XXooooooXX  ..................",
"  XXooXXXXoo  ..................",
"  XXooXXXXoo  ..................",
"  ooXXXXXXoo  ..................",
"  ooXXXXXXoo  ..................",
"  XXXXXXXXXX  ..................",
"  XXXXXXXXXX  ..................",
"  XXXXXXXXXX  ..................",
"  XXXXXXXXXX  ..................",
"            OO..................",
"            OO..................",
"OOOOOOOOOOOO....................",
"OOOOOOOOOOOO....................",
"............OO..................",
"............OO..................",
"............OO..................",
"............OO..................",
"............OO..................",
"............OO..................",
"................................",
"................................",
"............OO..................",
"............OO..................",
"............OO..................",
"............OO..................",
"................................",
"................................"
};
