/* XPM */
static char *c63b5db6de324a7eca9f7aefe27e5c11PzDMlBmrBOPq8za5[] = {
/* columns rows colors chars-per-pixel */
"32 32 4 1 ",
"  c #4C2F49",
". c #25131A",
"X c #78514F",
"o c #6E4A48",
/* pixels */
"            ....................",
"            ....................",
"  XXXXXXooXX  ..................",
"  XXXXXXooXX  ..................",
"  XXoooooooo  ..................",
"  XXoooooooo  ..................",
"  XXoooooooo  ..................",
"  XXoooooooo  ..................",
"  XXoooooooo  ..................",
"  XXoooooooo  ..................",
"  XXoooooooo  ..................",
"  XXoooooooo  ..................",
"  XXoooooooo  ..................",
"  XXoooooooo  ..................",
"              ..................",
"              ..................",
"              ..................",
"              ..................",
"  XXXXXXooXX  ..................",
"  XXXXXXooXX  ..................",
"  XXoooooooo  ..................",
"  XXoooooooo  ..................",
"  XXoooooooo  ..................",
"  XXoooooooo  ..................",
"  XXoooooooo  ..................",
"  XXoooooooo  ..................",
"  XXoooooooo  ..................",
"  XXoooooooo  ..................",
"  XXXXXXooXX  ..................",
"  XXXXXXooXX  ..................",
"              ..................",
"              .................."
};
