/* XPM */
static char *b365e8d789ea4ccdd29f95c0d1e038e18OA8kM7VvbsJ7Idx[] = {
/* columns rows colors chars-per-pixel */
"32 32 10 1 ",
"  c #593756",
". c #4C2F49",
"X c #6E4A48",
"o c #78514F",
"O c #3D253B",
"+ c #543740",
"@ c #483040",
"# c #25131A",
"$ c #422C3B",
"% c #4F3740",
/* pixels */
"  ..              ..............",
"  ..              ..............",
"..XXXXXXXXXXXXXXXXXXXXXXXXXXXX..",
"..XXXXXXXXXXXXXXXXXXXXXXXXXXXX..",
"..XXXXXXXXXXXXXXXXXXXXXXXXXXXX..",
"..XXXXXXXXXXXXXXXXXXXXXXXXXXXX..",
"..oooooooooooooooooooooooooooo..",
"..oooooooooooooooooooooooooooo..",
"OO++++++++++++++++++++++++++++OO",
"OO++++++++++++++++++++++++++++OO",
"OO++++++++++++++++++++++++++++..",
"OO++++++++++++++++++++++++++++..",
"OO@@++++++++++++++++++++++++@@OO",
"OO@@++++++++++++++++++++++++@@OO",
"##OOOOOOOOOOOOOOOOOOOOOOOOOOOOOO",
"##OOOOOOOOOOOOOOOOOOOOOOOOOOOOOO",
"OO@@++++++++@@OO@@++++++++++@@OO",
"OO@@++++++++@@OO@@++++++++++@@OO",
"OO++++++++++++OO++++++++++++++##",
"OO++++++++++++OO++++++++++++++##",
"##@@++++++++@@##@@++++++++++@@OO",
"##@@++++++++@@##@@++++++++++@@OO",
"OOOOOO####################OOOO##",
"OOOOOO####################OOOO##",
"##$$%%%%%%%%%%%%%%%%%%%%%%%%$$OO",
"##$$%%%%%%%%%%%%%%%%%%%%%%%%$$OO",
"##%%%%%%%%%%%%%%%%%%%%%%%%%%%%##",
"##%%%%%%%%%%%%%%%%%%%%%%%%%%%%##",
"##$$$$$$$$$$$$$$$$$$$$$$$$$$$$##",
"##$$$$$$$$$$$$$$$$$$$$$$$$$$$$##",
"################################",
"################################"
};
