/* XPM */
static char *_a3fddacb88e4e81af3ac69ccbdb3e50ttu9uywoUYBlt7xw[] = {
/* columns rows colors chars-per-pixel */
"32 32 4 1 ",
"  c #4C2F49",
". c #25131A",
"X c #78514F",
"o c #6E4A48",
/* pixels */
"              ..................",
"              ..................",
"  XXoooooooo  ..................",
"  XXoooooooo  ..................",
"  XXoooooooo  ..................",
"  XXoooooooo  ..................",
"  XXoooooooo  ..................",
"  XXoooooooo  ..................",
"  XXoooooooo  ..................",
"  XXoooooooo  ..................",
"  XXoooooooo  ..................",
"  XXoooooooo  ..................",
"  XXoooooooo  ..................",
"  XXoooooooo  ..................",
"  XXoooooooo  ..................",
"  XXoooooooo  ..................",
"  XXoooooooo  ..................",
"  XXoooooooo  ..................",
"  XXoooooooo  ..................",
"  XXoooooooo  ..................",
"  XXoooooooo  ..................",
"  XXoooooooo  ..................",
"  XXoooooooo  ..................",
"  XXoooooooo  ..................",
"  XXoooooooo  ..................",
"  XXoooooooo  ..................",
"  XXoooooooo  ..................",
"  XXoooooooo  ..................",
"  XXXXXXooXX  ..................",
"  XXXXXXooXX  ..................",
"              ..................",
"              .................."
};
