/* XPM */
static char *b59a293919a6442bc8232e1d24b6a630XZnwd6psX3THiK59[] = {
/* columns rows colors chars-per-pixel */
"32 32 5 1 ",
"  c #25131A",
". c #4C2F49",
"X c #6E4A48",
"o c #78514F",
"O c #3D253B",
/* pixels */
"                  ..............",
"                  ..............",
"                  ..XXooooooXX..",
"                  ..XXooooooXX..",
"                  ..ooXXXXooXX..",
"                  ..ooXXXXooXX..",
"                  ..ooXXXXXXoo..",
"                  ..ooXXXXXXoo..",
"                  ..XXXXXXXXXX..",
"                  ..XXXXXXXXXX..",
"                  ..XXXXXXXXXX..",
"                  ..XXXXXXXXXX..",
"                  OO............",
"                  OO............",
"                    OOOOOOOOOOOO",
"                    OOOOOOOOOOOO",
"                  OO            ",
"                  OO            ",
"                  OO            ",
"                  OO            ",
"                  OO            ",
"                  OO            ",
"                                ",
"                                ",
"                  OO            ",
"                  OO            ",
"                  OO            ",
"                  OO            ",
"                                ",
"                                ",
"                                ",
"                                "
};
